# xmcd CD database file
#
# Track frame offsets:
#	150
#	9300
#	22350
#	35550
#	48600
#	58200
#	70500
#	84450
#	95400
#	108150
#	123150
#	136950
#	151650
#	164250
#	175500
#	186750
#	201600
#
# Disc length: 2892 seconds
#
# Revision: 0
# Processed by: cddbd v1.5.2PL0 Copyright (c) Steve Scherf et al.
# Submitted via: CDex 1.51
#
DISCID=df0b4a11
DTITLE=Patty Hazzard - Heart And Soul
DYEAR=2003
DGENRE=Country
TTITLE0=Tennessee Waltz
TTITLE1=Coal Miner's Daughter
TTITLE2=Stand By Your Man
TTITLE3=I Fall To Pieces
TTITLE4=Snow Bird
TTITLE5=Crazy
TTITLE6=She's Got You
TTITLE7=Leaving On My Mind
TTITLE8=Sweet Dreams
TTITLE9=Harper Valley PTA
TTITLE10=Satin Sheets
TTITLE11=Mama He's Crazy
TTITLE12=Delta Dawn
TTITLE13=Paper Roses
TTITLE14=Help Me Make It Through The Night
TTITLE15=One Day At A Time
TTITLE16=Why Me Lord
EXTD=YEAR: 2003
EXTT0=
EXTT1=
EXTT2=
EXTT3=
EXTT4=
EXTT5=
EXTT6=
EXTT7=
EXTT8=
EXTT9=
EXTT10=
EXTT11=
EXTT12=
EXTT13=
EXTT14=
EXTT15=
EXTT16=
PLAYORDER=
